<svg xmlns="http://www.w3.org/2000/svg" version="1.1" xmlns:xlink="http://www.w3.org/1999/xlink" xmlns:svgjs="http://svgjs.com/svgjs" viewBox="0 0 16 16" width="16" height="16"><g transform="matrix(0.6666666666666666,0,0,0.6666666666666666,0,0)"><path d="M12,8.89c0.023-0.815-0.212-1.616-0.67-2.29C10.411,5.487,9.009,4.891,7.57,5H1C0.724,5,0.5,5.224,0.5,5.5v14 C0.5,19.776,0.724,20,1,20h6.09c0.695,0.006,1.389-0.061,2.07-0.2c0.605-0.135,1.169-0.409,1.65-0.8 c0.405-0.327,0.744-0.727,1-1.18c0.437-0.72,0.662-1.548,0.65-2.39c0.024-0.773-0.174-1.536-0.57-2.2 c-0.403-0.577-0.982-1.008-1.65-1.23c0.427-0.205,0.808-0.494,1.12-0.85C11.835,10.497,12.062,9.695,12,8.89z M3.5,8.5 C3.5,8.224,3.724,8,4,8h3.5C8.328,8,9,8.672,9,9.5S8.328,11,7.5,11H4c-0.276,0-0.5-0.224-0.5-0.5V8.5z M9.5,15c0,1.105-0.895,2-2,2 H4c-0.276,0-0.5-0.224-0.5-0.5v-3C3.5,13.224,3.724,13,4,13h3.5C8.605,13,9.5,13.895,9.5,15z M16,4h5c0.276,0,0.5,0.224,0.5,0.5v1 C21.5,5.776,21.276,6,21,6h-5c-0.276,0-0.5-0.224-0.5-0.5v-1C15.5,4.224,15.724,4,16,4z M23,15c0.276,0,0.5-0.224,0.5-0.5 c0.008-0.551-0.022-1.103-0.09-1.65c-0.109-0.8-0.396-1.566-0.84-2.24C22.124,9.907,21.486,9.348,20.73,9 c-0.692-0.345-1.457-0.516-2.23-0.5c-1.478-0.044-2.915,0.495-4,1.5c-1.051,1.186-1.59,2.738-1.5,4.32 c-0.151,1.618,0.445,3.217,1.62,4.34c1.1,0.881,2.471,1.355,3.88,1.34c1.825,0.149,3.588-0.7,4.61-2.22 c0.155-0.229,0.095-0.54-0.134-0.694c-0.084-0.057-0.184-0.087-0.286-0.086h-2c-0.13-0.001-0.256,0.049-0.35,0.14l-0.07,0.06 c-0.538,0.349-1.17,0.523-1.81,0.5c-0.539,0.016-1.071-0.127-1.53-0.41c-0.564-0.394-0.929-1.015-1-1.7 c-0.05-0.272,0.13-0.532,0.402-0.582C16.361,15.003,16.39,15,16.42,15L23,15z M16.47,13c-0.237,0.001-0.431-0.191-0.432-0.428 c0-0.034,0.004-0.068,0.012-0.102c0.288-1.35,1.616-2.212,2.967-1.923c0.964,0.206,1.718,0.959,1.923,1.923 c0.055,0.231-0.087,0.463-0.318,0.518C20.588,12.996,20.554,13,20.52,13H16.47z" stroke="none" fill="currentColor" stroke-width="0" stroke-linecap="round" stroke-linejoin="round"></path></g></svg>
