<svg xmlns="http://www.w3.org/2000/svg" version="1.1" xmlns:xlink="http://www.w3.org/1999/xlink" xmlns:svgjs="http://svgjs.com/svgjs" viewBox="0 0 16 16" width="16" height="16">><g transform="matrix(0.6666666666666666,0,0,0.6666666666666666,0,0)"><path d="M24,12c0.001-6.627-5.372-12-11.999-12.001c-1.998,0-3.965,0.499-5.721,1.451H6.23C2.393,3.576,0.009,7.614,0,12 c-0.001,2.764,0.956,5.443,2.71,7.58l0,0l0,0c4.195,5.131,11.755,5.889,16.886,1.694C22.379,18.999,23.995,15.595,24,12z M20.07,6.12c1.185,1.607,1.857,3.535,1.93,5.53c-0.88-0.09-1.82-0.14-2.62-0.14c-1.398,0.006-2.794,0.133-4.17,0.38 c-0.27-0.69-0.56-1.37-0.89-2C16.408,8.917,18.345,7.647,20.07,6.12z M18.74,4.64c-1.626,1.417-3.452,2.587-5.42,3.47 c-1.268-2.066-2.843-3.927-4.67-5.52c3.473-1.27,7.364-0.499,10.09,2V4.64z M6.68,3.55c1.86,1.497,3.465,3.287,4.75,5.3 C9.149,9.618,6.757,10.007,4.35,10c-0.71,0-1.42,0-2.13-0.11C2.794,7.263,4.401,4.978,6.68,3.55z M2,11.92 c0.78,0.08,1.56,0.13,2.34,0.13c2.758-0.004,5.495-0.484,8.09-1.42c0.287,0.56,0.547,1.13,0.78,1.71 c-3.548,0.94-6.831,2.689-9.59,5.11C2.544,15.808,1.98,13.883,2,11.92z M4.87,19c2.58-2.282,5.664-3.92,9-4.78 c0.625,2.072,0.941,4.225,0.94,6.39c0,0.33,0,0.66,0,1C11.269,22.653,7.442,21.648,4.87,19z M16.87,20.76c0,0,0-0.1,0-0.15 c-0.007-2.303-0.344-4.593-1-6.8c1.157-0.193,2.327-0.293,3.5-0.3c0.77,0,1.66,0.05,2.49,0.14c-0.505,3.016-2.361,5.635-5.04,7.11 H16.87z" stroke="none" fill="currentColor" stroke-width="0" stroke-linecap="round" stroke-linejoin="round"></path></g></svg>
