<svg xmlns="http://www.w3.org/2000/svg" version="1.1" xmlns:xlink="http://www.w3.org/1999/xlink" xmlns:svgjs="http://svgjs.com/svgjs" viewBox="0 0 16 16" width="16" height="16"><g transform="matrix(0.6666666666666666,0,0,0.6666666666666666,0,0)"><path d="M17.5,0h-11C2.912,0.006,0.006,2.912,0,6.5v11c0.006,3.588,2.912,6.494,6.5,6.5h11c3.588-0.006,6.494-2.912,6.5-6.5v-11 C23.994,2.912,21.088,0.006,17.5,0z M12,17.5c-3.038,0-5.5-2.462-5.5-5.5S8.962,6.5,12,6.5s5.5,2.462,5.5,5.5S15.038,17.5,12,17.5z M18.5,6.5C17.672,6.5,17,5.828,17,5s0.672-1.5,1.5-1.5S20,4.172,20,5S19.328,6.5,18.5,6.5z" stroke="none" fill="currentColor" stroke-width="0" stroke-linecap="round" stroke-linejoin="round"></path></g></svg>
