<svg xmlns="http://www.w3.org/2000/svg" version="1.1" xmlns:xlink="http://www.w3.org/1999/xlink" xmlns:svgjs="http://svgjs.com/svgjs" viewBox="0 0 16 16" width="16" height="16"><g transform="matrix(0.6666666666666666,0,0,0.6666666666666666,0,0)"><path d="M23,0H1C0.448,0,0,0.448,0,1v22c0,0.552,0.448,1,1,1h22c0.552,0,1-0.448,1-1V1C24,0.448,23.552,0,23,0z M20.36,5.85 L19,7.08c-0.109,0.086-0.162,0.223-0.14,0.36v9.48c-0.022,0.137,0.031,0.274,0.14,0.36l1.35,1.33v0.27H14v-0.27l1.16-1.36 c0.13-0.13,0.13-0.17,0.13-0.36V10l-2.8,7.9l0,0l-0.3,1H11.4c-2.65-5.79-3.49-7.82-4.3-9.21v7l1.64,2v0.27H4v-0.27l1.6-2v-9 L4.36,6.15V5.62h4.77l3.22,7.71L15,6.06c0.083-0.362,0.419-0.609,0.79-0.58h4.58L20.36,5.85z" stroke="none" fill="currentColor" stroke-width="0" stroke-linecap="round" stroke-linejoin="round"></path></g></svg>
