<svg xmlns="http://www.w3.org/2000/svg" version="1.1" xmlns:xlink="http://www.w3.org/1999/xlink" xmlns:svgjs="http://svgjs.com/svgjs" viewBox="0 0 16 16" width="16" height="16"><g transform="matrix(0.6666666666666666,0,0,0.6666666666666666,0,0)"><path d="M7.13,22.36c0.022,0.158,0.136,0.288,0.29,0.33h0.11c0.145-0.005,0.279-0.079,0.36-0.2c0.964-1.191,1.705-2.546,2.19-4 c0.09-0.33,0.39-1.52,0.61-2.37c0.035-0.134,0.172-0.213,0.305-0.178c0.035,0.009,0.067,0.026,0.095,0.048 c0.722,0.567,1.612,0.877,2.53,0.88c3.9,0,6.73-3.57,6.73-8.48c0-3.51-2.94-7.13-7.86-7.13C7,1.29,3.65,5.23,3.65,9 c0,2.35,1,4.15,2.62,4.82c0.327,0.161,0.723,0.026,0.884-0.301c0.026-0.054,0.045-0.111,0.056-0.169l0.24-1 c0.119-0.317,0.032-0.674-0.22-0.9c-0.505-0.619-0.765-1.402-0.73-2.2c-0.019-3.021,2.415-5.485,5.436-5.504 c0.078,0,0.156,0.001,0.234,0.004c2.93,0,4.75,1.67,4.75,4.36c0,3.5-1.53,6.14-3.56,6.14c-0.512,0.027-1.011-0.174-1.36-0.55 c-0.304-0.391-0.408-0.902-0.28-1.38c0.13-0.54,0.3-1.1,0.47-1.65c0.312-0.86,0.507-1.758,0.58-2.67 c0.089-1.012-0.66-1.905-1.672-1.994C11.029,6,10.959,5.998,10.89,6C9.45,6,8.33,7.43,8.33,9.31 c-0.001,0.611,0.108,1.217,0.32,1.79c0.029,0.095,0.029,0.195,0,0.29L7.17,17.7C6.884,19.239,6.871,20.816,7.13,22.36z" stroke="none" fill="currentColor" stroke-width="0" stroke-linecap="round" stroke-linejoin="round"></path></g></svg>
