<svg xmlns="http://www.w3.org/2000/svg" version="1.1" xmlns:xlink="http://www.w3.org/1999/xlink" xmlns:svgjs="http://svgjs.com/svgjs" viewBox="0 0 16 16" width="16" height="16"><g transform="matrix(0.6666666666666666,0,0,0.6666666666666666,0,0)"><path d="M12,22.35c0.529,0,1.057-0.04,1.58-0.12c0.106-0.017,0.215,0,0.31,0.05c3.033,1.602,6.79,0.442,8.391-2.591 c0.478-0.905,0.725-1.915,0.719-2.939c0.002-1.048-0.26-2.079-0.76-3c-0.053-0.094-0.074-0.203-0.06-0.31 c0.795-5.655-3.144-10.884-8.799-11.679C12.923,1.696,12.462,1.663,12,1.66c-0.516,0.002-1.03,0.042-1.54,0.12 c-0.106,0.017-0.215,0-0.31-0.05C7.096,0.133,3.326,1.314,1.729,4.368C0.771,6.2,0.782,8.388,1.76,10.21 c0.05,0.095,0.067,0.204,0.05,0.31c-0.828,5.645,3.076,10.892,8.72,11.721C11.017,22.312,11.508,22.349,12,22.35z M12.1,5 c3.16,0.19,5,1.58,5.19,2.89c0.103,0.727-0.403,1.4-1.13,1.504c-0.106,0.015-0.213,0.017-0.32,0.006c-1.43,0-1.58-1.91-4-1.91 c-1.11,0-2,0.46-2,1.47c0,2.1,7.89,0.88,7.89,5.51c0,2.67-2.13,4.42-5.3,4.42c-2.79,0-5.6-1.27-5.58-3.46 c-0.022-0.626,0.43-1.169,1.05-1.26c1.64,0,1.63,2.45,4.25,2.45c1.84,0,2.46-1,2.46-1.71c0-2.53-7.93-1-7.93-5.74 C6.68,6.6,8.79,4.82,12.1,5z" stroke="none" fill="currentColor" stroke-width="0" stroke-linecap="round" stroke-linejoin="round"></path></g></svg>
