<svg xmlns="http://www.w3.org/2000/svg" version="1.1" xmlns:xlink="http://www.w3.org/1999/xlink" xmlns:svgjs="http://svgjs.com/svgjs" viewBox="0 0 16 16" width="16" height="16"><g transform="matrix(0.6666666666666666,0,0,0.6666666666666666,0,0)"><path d="M20.83,18.67L23,18.23c0.479-0.134,0.758-0.631,0.623-1.11c-0.073-0.259-0.257-0.472-0.503-0.58 c-1.061-0.492-2.067-1.095-3-1.8c-0.641-0.48-0.772-1.389-0.292-2.03c0.107-0.143,0.24-0.265,0.392-0.36l1.32-0.83 c0.679-0.431,0.881-1.331,0.45-2.01c-0.431-0.679-1.331-0.881-2.01-0.45L19.13,9.6c-0.165,0.111-0.389,0.066-0.499-0.099 c-0.042-0.062-0.063-0.136-0.061-0.211V6.55c-0.141-3.615-3.186-6.43-6.801-6.289C8.353,0.394,5.614,3.133,5.48,6.55v2.73 c0.006,0.199-0.15,0.365-0.349,0.371C5.056,9.653,4.982,9.632,4.92,9.59L4.07,9.05C3.391,8.619,2.491,8.821,2.06,9.5 c-0.431,0.679-0.229,1.579,0.45,2.01l1.32,0.83c0.679,0.425,0.885,1.319,0.46,1.998c-0.095,0.152-0.217,0.284-0.36,0.392 c-0.933,0.705-1.939,1.308-3,1.8c-0.463,0.181-0.691,0.704-0.509,1.166C0.521,17.954,0.735,18.151,1,18.23l2.15,0.44 c0.463,0.136,0.736,0.612,0.62,1.08c-0.187,0.75,0.269,1.51,1.019,1.698c0.187,0.047,0.381,0.054,0.571,0.022l0.68-0.11 c0.991-0.165,2,0.159,2.71,0.87C9.575,23.205,10.734,23.836,12,24c1.26-0.172,2.412-0.806,3.23-1.78 c0.71-0.711,1.719-1.035,2.71-0.87l0.68,0.11c0.763,0.128,1.484-0.386,1.612-1.149c0.032-0.19,0.024-0.384-0.022-0.571 C20.1,19.275,20.372,18.806,20.83,18.67z" stroke="none" fill="currentColor" stroke-width="0" stroke-linecap="round" stroke-linejoin="round"></path></g></svg>
