<svg xmlns="http://www.w3.org/2000/svg" version="1.1" xmlns:xlink="http://www.w3.org/1999/xlink" xmlns:svgjs="http://svgjs.com/svgjs" viewBox="0 0 16 16" width="16" height="16"><g transform="matrix(0.6666666666666666,0,0,0.6666666666666666,0,0)"><path d="M20.66,10.71c-0.228,0-0.456,0.023-0.68,0.07c-0.508-2.566-2.764-4.411-5.38-4.4c-0.684-0.001-1.362,0.125-2,0.37 c-0.356,0.103-0.601,0.429-0.6,0.8v9c0,0.447,0.353,0.814,0.8,0.83h7.85c1.839,0,3.33-1.491,3.33-3.33 c0-1.839-1.491-3.329-3.33-3.33L20.66,10.71z M9.74,7.11C9.33,7.115,9,7.45,9,7.86v9c0,0.414,0.336,0.75,0.75,0.75 s0.75-0.336,0.75-0.75v-9c0-0.414-0.336-0.75-0.75-0.75C9.747,7.11,9.743,7.11,9.74,7.11z M6.75,8.61C6.336,8.61,6,8.946,6,9.36 v7.51c0,0.414,0.336,0.75,0.75,0.75s0.75-0.336,0.75-0.75V9.36C7.5,8.946,7.164,8.61,6.75,8.61z M3.75,10.61 C3.336,10.61,3,10.946,3,11.36v5.51c0,0.414,0.336,0.75,0.75,0.75s0.75-0.336,0.75-0.75v-5.51C4.5,10.946,4.164,10.61,3.75,10.61z M0.76,11.61c-0.414,0-0.75,0.336-0.75,0.75v4c0,0.414,0.336,0.75,0.75,0.75s0.75-0.336,0.75-0.75v-4 C1.51,11.946,1.174,11.61,0.76,11.61C0.76,11.61,0.76,11.61,0.76,11.61z" stroke="none" fill="currentColor" stroke-width="0" stroke-linecap="round" stroke-linejoin="round"></path></g></svg>
