<svg version="1.1" xmlns="http://www.w3.org/2000/svg" xmlns:xlink="http://www.w3.org/1999/xlink" x="0px" y="0px" width="164.6px"
	 height="148.6px" viewBox="0 0 164.6 148.6" style="enable-background:new 0 0 164.6 148.6;" xml:space="preserve">
    <g fill="currentColor">
        <path d="M0,85.4c7.4-18,34.4-62.5,56.7-74.1c14,3.9-13.5,18.8-27.5,41.1c-6,8.4-10.9,16.3-16.1,26.1C10.9,82.9,6,96,0,85.9
            C0,85.8,0,85.6,0,85.4z"/>
        <path d="M98.3,87.2c-4.5,9.7-14.5,17.1-20.9,27.5c-8.6,10-14,23.5-23.2,33.9c-17.4,1.4,12.2-32.2,15.7-39
            C72.6,108.2,94.6,70.3,98.3,87.2z"/>
        <path d="M108.8,31.1C101.3,42.3,88,51,79,63.4c-4.7,3.7-10.6,17.5-16.7,17c-12.9-2.1,13-25,18.1-32.3
            C84.9,44.9,105.7,15.7,108.8,31.1z"/>
        <path d="M125.9,88.2c-13.5-4.1,7.5-16.4,14.2-23.5c5.8-3.4,17.6-20.1,23.4-13.9c5.2,5.8-10,12.7-15.3,18.8
            C140.9,74.9,134.8,83.9,125.9,88.2z"/>
        <path d="M37.3,74.1c-11.9-2.7,2.5-17.1,7-24.1c3.2-2.7,13.2-19.2,18.6-11.1c3.4,4.9-8.7,11.6-12.2,17.7
            C45.8,61,44,70.8,37.3,74.1z"/>
        <path d="M102.2,110.4c-1.6,5.8-7.8,10-11.4,16.2c-2.7,3.5-5.4,11.3-11.2,6.2c-4-5.8,5.1-11.4,9.2-18.5
            C91.8,110.4,99.6,99.2,102.2,110.4z"/>
        <path d="M112.7,62.5c-14.9-4,11.4-19.9,17.7-24.3c4.7-1.6,7.9,6.3,2.6,8.9C125.7,51,120.5,58.7,112.7,62.5z"/>
        <path d="M86.3,20.9C73.3,17,93.8,5,99.2,0c8.5,0.5,5.4,8.3-1,12.6C94.7,15.4,91.6,19.3,86.3,20.9z"/>
        <path d="M36.9,115.9c-11-1,0.8-16.7,5.4-21.3c10-2.2,6.4,7.4,1.8,12.3C41.8,109.7,41.5,114.9,36.9,115.9z"/>
    </g>
</svg>
